# xmcd
#
# Track frame offsets: 
#        150
#        12754
#        30091
#        50050
#        66014
#        81696
#        96228
#        110000
#        133348
#        148317
#
# Disc length: 2257 seconds
#
# Revision: 1
# Processed by: cddbd v1.5.2PL0 Copyright (c) Steve Scherf et al.
# Submitted via: ExactAudioCopyFreeDBPlugin 1.0
#
DISCID=9108cf0a
DTITLE=Charles Bradley - Black Velvet
DYEAR=2018
DGENRE=Soul
TTITLE0=Can’t Fight the Feeling
TTITLE1=Luv Jones
TTITLE2=I Feel a Change
TTITLE3=Slip Away
TTITLE4=Black Velvet
TTITLE5=Stay Away
TTITLE6=Heart of Gold
TTITLE7=(I Hope You Find) The Good Life
TTITLE8=Fly Little Girl
TTITLE9=Victim of Love (electric version)
EXTD=
EXTT0=
EXTT1=
EXTT2=
EXTT3=
EXTT4=
EXTT5=
EXTT6=
EXTT7=
EXTT8=
EXTT9=
PLAYORDER=
